<?xml version="1.0" encoding="UTF-8"?>
<svg id="Layer_1" xmlns="http://www.w3.org/2000/svg" version="1.1" viewBox="0 0 283.72 810.51">
  <!-- Generator: Adobe Illustrator 29.6.1, SVG Export Plug-In . SVG Version: 2.1.1 Build 9)  -->
  <defs>
    <style>
      .st0 {
        fill: #fcf1e2;
      }
    </style>
  </defs>
  <path class="st0" d="M132.65,19.47c7.58-2.43,13.93-8.14,21.73-10.86,20.01-6.97,37.56,2.19,32.45,24.97-3.83,17.11-12.92,32.9-19.72,48.85,5.57-.74,12.11-4.53,17.5-1.39,4.51,2.63,3.84,8.05,0,11.03-4.37,3.39-14.26,6.15-19.76,9.46-8.51,5.13-13.53,14.42-20.2,21.77-10.63,11.73-22.88,22.27-34.13,33.31-14.81,14.54-29.58,29.13-44.56,43.48,44.46-19.32,87.89-40.98,132.11-60.84,9.35-4.2,32.78-16.27,41.35-17.1,24.86-2.41,24.59,16.13,3.53,21.52-19.19,3.02-36.88,13.04-55.61,18.21.89,3.69,4.01,6.1,4.51,10.09.78,6.28-1.53,15.29-1.58,21.76-.06,6.91,1.35,14.39.84,21.76-1.31,19.14-10.74,30.63-22.07,44.63-2.71,3.34-3.64,7.36-8.31,8.91-2.57-1.97.01-4.6.5-6.98,2.52-12.31.84-24.44,1.35-36.88.32-7.93,1.95-16.03,2.31-23.92.43-9.39-.36-18.85-1.54-28.14l-24.72,10.12,24.5-17.08,1.72-5.03c-17.56,4.73-34.14,14.64-49.38,24.42-29.68,19.04-57,41.79-86.48,61.15-14.79,10.05-38.35,1.15-25.1-18.37,5.66-8.34,17.47-10.84,25.9-16.07,10.56-6.55,22.31-15.56,32.36-23.1,29.33-22.01,58.18-46.15,80.23-75.64-3.61-.16-6.03.8-9.17-1.85-11.75-9.9,12.11-19.34,15.32-24.98,4.32-7.59,10.4-28.82,12.96-38,.83-2.98,5.02-16.96,3.79-18.76-.85-1.11-1.6-.67-2.68-.39-11.11,2.87-20.45,17.41-29.54,23.7-.79,8.9-4.21,18.64-4.9,27.33-.82,10.36,1.68,20.82-2.12,30.86-2.61,6.9-7.11,13-13.21,4.68-2.63-3.59-6.37-18.11-7.55-23.18-7.03-30.02-4.22-43.55,1.69-72.53,1.1-5.4-.45-9.84,3.61-15.13,10.22-13.31,24.46,1.28,22.07,14.2ZM197.83,148.39l-19.48,7.11c5.05,4.81,14.76-4.06,19.48-7.11Z"/>
  <path class="st0" d="M283.01,809.27c5.05,6-17.69-11.1-41.41-24.35-7.87-4.4-33.17-18.42-39.99-25.6-24.58-25.87-39.73-53.63-25.42-112.4,13.55-55.67,38.01-112.28,44.87-169.88,2.23-18.76,4.3-40.39,5.24-59.21.06-1.11.05-2.22.04-3.33-.02-1.54-1.95-2.21-2.93-1.03l-45.32,54.83c-.07.09-.15.17-.23.24-7.29,6.17-23.23,1-15.56-9.8,4.11-5.79,10.49-6.2,16.3-9.93,14.06-9.03,40.26-32.75,47.57-47.6,3.07-6.23,1.76-15.43,2.4-22.33,1.12-12.02,2.07-21.64,2.39-33.73.29-10.82,12.7-18.69,19.95-8.12,6.58,9.58,1.54,16.86-.4,26.33-2.75,13.43-5.54,27.36-6.96,41.01-1.93,18.5-.7,36.41-1.47,54.74-2.54,59.99-34.61,118.06-50.17,176.16-17.81,66.49-13.81,90.94,19,122.25"/>
  <path class="st0" d="M235.72,773.62"/>
  <path class="st0" d="M118.41,472.91c9.99,3.13,20.18,6.1,26.55,15.05,2.81,3.94,9.3,21.99,9.27,26.57-.05,6.9-5.74,10.63-11.81,6.7-6.66-4.31-4.13-7.37-6.41-13.08-3.87-9.7-16.97-17.26-26.24-20.88l-39.32,57.22c-8.28,7.77-13.97.05-9.54-8.8,20.23-37.18,42.67-73.67,56.01-114.11-.46-1.09-1.42-.05-2.03.22-9.22,4.05-23.35,12.05-31.94,17.52-6.91,4.39-8.22,9.54-18.02,8.77-11.96-.94-14.17-8.95-6.46-17.52,4.62-5.13,7.28-3,12.28-4.95,7.71-3,19.68-12.12,27.67-16.54,5.64-3.12,19.89-11.63,25.21-13.01,9.4-2.44,21.19,4.43,22.2,14.63.6,6.09-8.09,23.17-11.05,29.5-5.14,11.03-11.29,21.65-16.37,32.71Z"/>
  <path class="st0" d="M135.44,257.21c5.4-1.63,8.65,4.22,9.93,8.54-1.68,11.09-6.62,24.69-5.25,35.92,2.22,18.16,29.22,6.9,39.56,3.56,14.73-4.76,29.21-10.73,44.01-15.25l2.6,1.18c0,.45-5.86,5.27-6.78,5.94-9.73,7.11-21.47,15.01-31.63,21.58-16.64,10.76-46.37,26.61-61.56,5.03-11.7-16.62,3.45-34.68,1.76-50.48-.22-2.07-1.63-3.42-1.3-5.86.42-3.1,5.85-9.32,8.65-10.16Z"/>
  <path class="st0" d="M197.83,148.39c-4.72,3.05-14.43,11.92-19.48,7.11l19.48-7.11Z"/>
  <path class="st0" d="M239.48,772.09"/>
</svg>