<?xml version="1.0" encoding="UTF-8"?>
<svg xmlns="http://www.w3.org/2000/svg" version="1.1" viewBox="0 0 482.68 349.81">
  <!-- Generator: Adobe Illustrator 29.6.1, SVG Export Plug-In . SVG Version: 2.1.1 Build 9)  -->
  <defs>
    <style>
      .st0 {
        fill: #222;
      }

      .st1 {
        fill: #fdf3e6;
      }

      .st2 {
        display: none;
      }
    </style>
  </defs>
  <g id="Layer_1" class="st2">
    <path class="st0" d="M27.12,57.12l-7.95,7.95h3.43c.99,0,1.9.18,2.71.54.81-.36,1.72-.54,2.71-.54h16.27c3.8,0,6.33,2.53,6.33,6.33s-2.53,6.33-6.33,6.33h-16.27c-.99,0-1.9-.18-2.71-.54-.81.36-1.72.54-2.71.54H6.33c-3.8,0-6.33-2.53-6.33-6.33,0-.45,0-.9.09-1.36-.09-.45-.09-.9-.09-1.36,0-1.81.72-3.71,1.81-4.79l16.09-16c.9-.9,2.35-1.54,3.89-1.72.18-1.54.81-3.07,1.72-3.98l14.28-14.19-14.28-14.28c-1.08-1.08-1.81-2.98-1.81-4.7,0-3.8,2.53-6.33,6.33-6.33,1.81,0,3.71.72,4.79,1.81l16,16c1.08,1.08,1.81,2.98,1.81,4.79,0,.99-.18,1.9-.54,2.71.36.81.54,1.72.54,2.71,0,1.72-.72,3.61-1.81,4.7l-16,16.09c-.9.9-2.44,1.54-3.98,1.72-.18,1.54-.81,2.98-1.72,3.89Z"/>
    <path class="st0" d="M119.31,30.73v16.27c0,2.44-.99,4.25-2.71,5.33v.09c0,1.72-.72,3.62-1.81,4.7l-16,16.09c-1.08,1.08-2.98,1.81-4.79,1.81-.99,0-1.9-.18-2.71-.54-.81.36-1.72.54-2.71.54-1.72,0-3.62-.72-4.7-1.81l-16.09-16.09c-1.09-1.08-1.81-2.98-1.81-4.7v-.09c-1.72-1.08-2.71-2.89-2.71-5.33v-16.27c0-2.44.99-4.25,2.71-5.33v-.09c0-1.81.72-3.71,1.81-4.79l16.09-16c1.09-1.08,2.98-1.81,4.7-1.81.99,0,1.9.18,2.71.54.81-.36,1.72-.54,2.71-.54,1.81,0,3.71.72,4.79,1.81l16,16c1.08,1.08,1.81,2.98,1.81,4.79v.09c1.72,1.08,2.71,2.89,2.71,5.33ZM91.29,62.09l14.28-14.19c.27-.27.63-.54,1.08-.81v-16.45c-.45-.27-.81-.54-1.08-.81l-14.28-14.28-14.19,14.28c-.36.36-.72.63-1.18.9v16.27c.45.27.81.54,1.18.9l14.19,14.19Z"/>
    <path class="st0" d="M151.4,57.12l-7.95,7.95h3.43c.99,0,1.9.18,2.71.54.81-.36,1.72-.54,2.71-.54h16.27c3.8,0,6.33,2.53,6.33,6.33s-2.53,6.33-6.33,6.33h-16.27c-.99,0-1.9-.18-2.71-.54-.81.36-1.72.54-2.71.54h-16.27c-3.8,0-6.33-2.53-6.33-6.33,0-.45,0-.9.09-1.36-.09-.45-.09-.9-.09-1.36,0-1.81.72-3.71,1.81-4.79l16.09-16c.9-.9,2.35-1.54,3.89-1.72.18-1.54.81-3.07,1.72-3.98l14.28-14.19-14.28-14.28c-1.08-1.08-1.81-2.98-1.81-4.7,0-3.8,2.53-6.33,6.33-6.33,1.81,0,3.71.72,4.79,1.81l16,16c1.08,1.08,1.81,2.98,1.81,4.79,0,.99-.18,1.9-.54,2.71.36.81.54,1.72.54,2.71,0,1.72-.72,3.61-1.81,4.7l-16,16.09c-.9.9-2.44,1.54-3.98,1.72-.18,1.54-.81,2.98-1.72,3.89Z"/>
    <path class="st0" d="M217.39,42.21c1.08,1.09,1.81,2.98,1.81,4.79,0,.99-.18,1.9-.54,2.71.36.81.54,1.72.54,2.71,0,1.72-.72,3.62-1.81,4.7l-16,16.09c-1.09,1.08-2.98,1.81-4.79,1.81-.45,0-.9,0-1.36-.09-.45.09-.9.09-1.36.09-3.8,0-6.33-2.53-6.33-6.33v-16.27c0-.99.18-1.9.54-2.71-.36-.81-.54-1.72-.54-2.71v-16.27c0-2.44.99-4.25,2.71-5.33v-.09c0-1.81.72-3.71,1.81-4.79l16.09-16c1.09-1.08,2.98-1.81,4.7-1.81,3.8,0,6.33,2.53,6.33,6.33,0,1.72-.72,3.62-1.81,4.7l-14.19,14.28,14.19,14.19ZM200.21,55.86l6.15-6.15-6.15-6.15v3.44c0,.99-.18,1.9-.54,2.71.36.81.54,1.72.54,2.71v3.44Z"/>
    <path class="st0" d="M298.74,43.38c3.8,0,6.33,2.53,6.33,6.33,0,.45,0,.9-.09,1.35.09.45.09.9.09,1.36,0,1.72-.72,3.62-1.81,4.7l-16,16.09c-1.09,1.08-2.98,1.81-4.79,1.81-3.8,0-6.33-2.53-6.33-6.33,0-1.81.72-3.71,1.81-4.79l7.86-7.86h-3.34c-2.71,0-4.7-1.27-5.69-3.34-2.08-.99-3.34-2.98-3.34-5.69v-16.27c0-.99.18-1.9.54-2.71-.36-.81-.54-1.72-.54-2.71V9.04c0-2.71,1.27-4.7,3.34-5.69.99-2.08,2.98-3.34,5.69-3.34h16.27c3.8,0,6.33,2.53,6.33,6.33s-2.53,6.33-6.33,6.33h-12.65v12.65c0,.99-.18,1.9-.54,2.71.36.81.54,1.72.54,2.71v12.65h12.65Z"/>
    <path class="st0" d="M362.01,0c3.8,0,6.33,2.53,6.33,6.33s-2.53,6.33-6.33,6.33h-12.65v12.65c0,.99-.18,1.9-.54,2.71.36.81.54,1.72.54,2.71v16.27c0,.99-.18,1.9-.54,2.71.36.81.54,1.72.54,2.71v16.27c0,3.8-2.53,6.33-6.33,6.33s-6.33-2.53-6.33-6.33v-16.27c0-.99.18-1.9.54-2.71-.36-.81-.54-1.72-.54-2.71v-16.27c0-.99.18-1.9.54-2.71-.36-.81-.54-1.72-.54-2.71v-12.65h-12.65c-3.8,0-6.33-2.53-6.33-6.33s2.53-6.33,6.33-6.33h16.27c.99,0,1.9.18,2.71.54.81-.36,1.72-.54,2.71-.54h16.27Z"/>
    <path class="st0" d="M415.34,25.31c0,.99-.18,1.9-.54,2.71.36.81.54,1.72.54,2.71v16.27c0,.99-.18,1.9-.54,2.71.36.81.54,1.72.54,2.71v16.27c0,3.8-2.53,6.33-6.33,6.33s-6.33-2.53-6.33-6.33v-16.27c0-.99.18-1.9.54-2.71-.36-.81-.54-1.72-.54-2.71v-12.65h-9.04v12.65c0,.99-.18,1.9-.54,2.71.36.81.54,1.72.54,2.71v16.27c0,3.8-2.53,6.33-6.33,6.33s-6.33-2.53-6.33-6.33v-16.27c0-.99.18-1.9.54-2.71-.36-.81-.54-1.72-.54-2.71v-16.27c0-.99.18-1.9.54-2.71-.36-.81-.54-1.72-.54-2.71V9.04c0-3.8,2.53-6.33,6.33-6.33s6.33,2.53,6.33,6.33v12.65h9.04v-12.65c0-3.8,2.53-6.33,6.33-6.33s6.33,2.53,6.33,6.33v16.27Z"/>
    <path class="st0" d="M31.63,121.88c0,.99-.18,1.9-.54,2.71.36.81.54,1.72.54,2.71v16.27c0,.99-.18,1.9-.54,2.71.36.81.54,1.72.54,2.71v16.27c0,3.8-2.53,6.33-6.33,6.33-.45,0-.9,0-1.36-.09-.45.09-.9.09-1.36.09-1.72,0-3.61-.72-4.7-1.81L1.81,153.7c-1.09-1.08-1.81-2.98-1.81-4.7,0-3.8,2.53-6.33,6.33-6.33,1.81,0,3.71.72,4.79,1.81l7.86,7.86v-3.34c0-.99.18-1.9.54-2.71-.36-.81-.54-1.72-.54-2.71v-16.27c0-.99.18-1.9.54-2.71-.36-.81-.54-1.72-.54-2.71v-16.27c0-3.8,2.53-6.33,6.33-6.33s6.33,2.53,6.33,6.33v16.27Z"/>
    <path class="st0" d="M56.94,130.92v12.65c0,.99-.18,1.9-.54,2.71.36.81.54,1.72.54,2.71v12.65h12.65c3.8,0,6.33,2.53,6.33,6.33s-2.53,6.33-6.33,6.33h-16.27c-2.71,0-4.7-1.26-5.69-3.34-2.08-.99-3.34-2.98-3.34-5.69v-16.27c0-.99.18-1.9.54-2.71-.36-.81-.54-1.72-.54-2.71v-16.27c0-.99.18-1.9.54-2.71-.36-.81-.54-1.72-.54-2.71v-16.27c0-2.71,1.27-4.7,3.34-5.69.99-2.08,2.98-3.34,5.69-3.34h16.27c3.8,0,6.33,2.53,6.33,6.33s-2.53,6.33-6.33,6.33h-12.65v9.04h12.65c3.8,0,6.33,2.53,6.33,6.33s-2.53,6.33-6.33,6.33h-12.65Z"/>
    <path class="st0" d="M120.22,121.88c0,.99-.18,1.9-.54,2.71.36.81.54,1.72.54,2.71v16.27c0,.99-.18,1.9-.54,2.71.36.81.54,1.72.54,2.71v16.27c0,3.8-2.53,6.33-6.33,6.33-.45,0-.9,0-1.36-.09-.45.09-.9.09-1.36.09-1.72,0-3.62-.72-4.7-1.81l-16.09-16.09c-1.09-1.08-1.81-2.98-1.81-4.7,0-3.8,2.53-6.33,6.33-6.33,1.81,0,3.71.72,4.79,1.81l7.86,7.86v-3.34c0-.99.18-1.9.54-2.71-.36-.81-.54-1.72-.54-2.71v-16.27c0-.99.18-1.9.54-2.71-.36-.81-.54-1.72-.54-2.71v-16.27c0-3.8,2.53-6.33,6.33-6.33s6.33,2.53,6.33,6.33v16.27Z"/>
    <path class="st0" d="M188.91,121.88c0,.99-.18,1.9-.54,2.71.36.81.54,1.72.54,2.71v16.27c0,2.44-.99,4.25-2.71,5.33v.09c0,1.72-.72,3.62-1.81,4.7l-16,16.09c-1.08,1.08-2.98,1.81-4.79,1.81-.99,0-1.9-.18-2.71-.54-.81.36-1.72.54-2.71.54-1.72,0-3.61-.72-4.7-1.81l-16.09-16.09c-1.09-1.08-1.81-2.98-1.81-4.7v-.09c-1.72-1.08-2.71-2.89-2.71-5.33v-16.27c0-.99.18-1.9.54-2.71-.36-.81-.54-1.72-.54-2.71v-16.27c0-3.8,2.53-6.33,6.33-6.33s6.33,2.53,6.33,6.33v16.27c0,.99-.18,1.9-.54,2.71.36.81.54,1.72.54,2.71v16.27c.45.27.81.54,1.17.9l14.19,14.19,14.28-14.19c.27-.27.63-.54,1.08-.81v-16.36c0-.99.18-1.9.54-2.71-.36-.81-.54-1.72-.54-2.71v-16.27c0-3.8,2.53-6.33,6.33-6.33s6.33,2.53,6.33,6.33v16.27Z"/>
    <path class="st0" d="M29.83,206.89l-14.19,14.28,14.19,14.19c1.08,1.09,1.81,2.98,1.81,4.79,0,.99-.18,1.9-.54,2.71.36.81.54,1.72.54,2.71,0,1.72-.72,3.62-1.81,4.7l-16,16.09c-1.08,1.08-2.98,1.81-4.79,1.81-.45,0-.9,0-1.36-.09-.45.09-.9.09-1.36.09-3.8,0-6.33-2.53-6.33-6.33v-16.27c0-.99.18-1.9.54-2.71-.36-.81-.54-1.72-.54-2.71v-16.27c0-.99.18-1.9.54-2.71-.36-.81-.54-1.72-.54-2.71v-16.27c0-2.71,1.27-4.7,3.34-5.69.99-2.08,2.98-3.34,5.69-3.34h16.27c3.8,0,6.33,2.53,6.33,6.33,0,.45,0,.9-.09,1.36.09.45.09.9.09,1.36,0,1.72-.72,3.62-1.81,4.7ZM12.65,249.01l6.15-6.15-6.15-6.15v3.44c0,.99-.18,1.9-.54,2.71.36.81.54,1.72.54,2.71v3.44Z"/>
    <path class="st0" d="M56.94,218.45c0,.99-.18,1.9-.54,2.71.36.81.54,1.72.54,2.71v16.27c0,.99-.18,1.9-.54,2.71.36.81.54,1.72.54,2.71v16.27c0,3.8-2.53,6.33-6.33,6.33s-6.33-2.53-6.33-6.33v-16.27c0-.99.18-1.9.54-2.71-.36-.81-.54-1.72-.54-2.71v-16.27c0-.99.18-1.9.54-2.71-.36-.81-.54-1.72-.54-2.71v-16.27c0-3.8,2.53-6.33,6.33-6.33s6.33,2.53,6.33,6.33v16.27Z"/>
    <path class="st0" d="M82.25,227.49v12.65c0,.99-.18,1.9-.54,2.71.36.81.54,1.72.54,2.71v12.65h12.65c3.8,0,6.33,2.53,6.33,6.33s-2.53,6.33-6.33,6.33h-16.27c-2.71,0-4.7-1.26-5.69-3.34-2.08-.99-3.34-2.98-3.34-5.69v-16.27c0-.99.18-1.9.54-2.71-.36-.81-.54-1.72-.54-2.71v-16.27c0-.99.18-1.9.54-2.71-.36-.81-.54-1.72-.54-2.71v-16.27c0-2.71,1.27-4.7,3.34-5.69.99-2.08,2.98-3.34,5.69-3.34h16.27c3.8,0,6.33,2.53,6.33,6.33s-2.53,6.33-6.33,6.33h-12.65v9.04h12.65c3.8,0,6.33,2.53,6.33,6.33s-2.53,6.33-6.33,6.33h-12.65Z"/>
    <path class="st0" d="M191.62,218.45c0,.99-.18,1.9-.54,2.71.36.81.54,1.72.54,2.71v16.27c0,.99-.18,1.9-.54,2.71.36.81.54,1.72.54,2.71v16.27c0,3.8-2.53,6.33-6.33,6.33-.45,0-.9,0-1.36-.09-.45.09-.9.09-1.36.09-1.72,0-3.61-.72-4.7-1.81l-16.09-16.09c-.9-.9-1.54-2.35-1.72-3.89-1.54-.18-2.98-.81-3.89-1.72l-16.09-16.09c-.9-.9-1.54-2.35-1.72-3.89-1.54-.18-2.98-.81-3.89-1.72l-7.95-7.95v3.43c0,.99-.18,1.9-.54,2.71.36.81.54,1.72.54,2.71v16.27c0,.99-.18,1.9-.54,2.71.36.81.54,1.72.54,2.71v16.27c0,3.8-2.53,6.33-6.33,6.33s-6.33-2.53-6.33-6.33v-16.27c0-.99.18-1.9.54-2.71-.36-.81-.54-1.72-.54-2.71v-16.27c0-.99.18-1.9.54-2.71-.36-.81-.54-1.72-.54-2.71v-16.27c0-3.8,2.53-6.33,6.33-6.33.45,0,.9,0,1.36.09.45-.09.9-.09,1.36-.09,1.81,0,3.71.72,4.79,1.81l16,16c.9.9,1.54,2.44,1.72,3.98,1.54.18,3.07.81,3.98,1.72l16,16c.9.9,1.54,2.44,1.72,3.98,1.54.18,3.07.81,3.98,1.72l7.86,7.86v-3.34c0-.99.18-1.9.54-2.71-.36-.81-.54-1.72-.54-2.71v-16.27c0-.99.18-1.9.54-2.71-.36-.81-.54-1.72-.54-2.71v-16.27c0-3.8,2.53-6.33,6.33-6.33s6.33,2.53,6.33,6.33v16.27Z"/>
    <path class="st0" d="M282.01,218.45c0,.99-.18,1.9-.54,2.71.36.81.54,1.72.54,2.71v16.27c0,.99-.18,1.9-.54,2.71.36.81.54,1.72.54,2.71v16.27c0,3.8-2.53,6.33-6.33,6.33-.45,0-.9,0-1.36-.09-.45.09-.9.09-1.36.09-1.72,0-3.62-.72-4.7-1.81l-16.09-16.09c-.9-.9-1.54-2.35-1.72-3.89-1.54-.18-2.98-.81-3.89-1.72l-16.09-16.09c-.9-.9-1.54-2.35-1.72-3.89-1.54-.18-2.98-.81-3.89-1.72l-7.95-7.95v3.43c0,.99-.18,1.9-.54,2.71.36.81.54,1.72.54,2.71v16.27c0,.99-.18,1.9-.54,2.71.36.81.54,1.72.54,2.71v16.27c0,3.8-2.53,6.33-6.33,6.33s-6.33-2.53-6.33-6.33v-16.27c0-.99.18-1.9.54-2.71-.36-.81-.54-1.72-.54-2.71v-16.27c0-.99.18-1.9.54-2.71-.36-.81-.54-1.72-.54-2.71v-16.27c0-3.8,2.53-6.33,6.33-6.33.45,0,.9,0,1.36.09.45-.09.9-.09,1.36-.09,1.81,0,3.71.72,4.79,1.81l16,16c.9.9,1.54,2.44,1.72,3.98,1.54.18,3.07.81,3.98,1.72l16,16c.9.9,1.54,2.44,1.72,3.98,1.54.18,3.07.81,3.98,1.72l7.86,7.86v-3.34c0-.99.18-1.9.54-2.71-.36-.81-.54-1.72-.54-2.71v-16.27c0-.99.18-1.9.54-2.71-.36-.81-.54-1.72-.54-2.71v-16.27c0-3.8,2.53-6.33,6.33-6.33s6.33,2.53,6.33,6.33v16.27Z"/>
    <path class="st0" d="M394.09,245.57v16.27c0,3.8-2.53,6.33-6.33,6.33s-6.33-2.53-6.33-6.33v-12.65h-12.65c-.99,0-1.9-.18-2.71-.54-.81.36-1.72.54-2.71.54h-16.27c-.99,0-1.9-.18-2.71-.54-.81.36-1.72.54-2.71.54h-16.27c-.99,0-1.9-.18-2.71-.54-.81.36-1.72.54-2.71.54h-12.65v12.65c0,3.8-2.53,6.33-6.33,6.33s-6.33-2.53-6.33-6.33v-16.27c0-2.44.99-4.25,2.71-5.33v-.09c0-1.81.72-3.71,1.81-4.79l16.09-16c.9-.9,2.35-1.54,3.89-1.72.18-1.54.81-3.07,1.72-3.98l16.09-16c1.08-1.08,2.98-1.81,4.7-1.81.99,0,1.9.18,2.71.54.81-.36,1.72-.54,2.71-.54,1.81,0,3.71.72,4.79,1.81l16,16c.9.9,1.54,2.44,1.72,3.98,1.54.18,3.07.81,3.98,1.72l16,16c1.08,1.09,1.81,2.98,1.81,4.79v.09c1.72,1.08,2.71,2.89,2.71,5.33ZM344.38,208.69l-14.19,14.28c-.9.9-2.44,1.54-3.98,1.72-.18,1.54-.81,2.98-1.72,3.89l-7.95,7.95h3.43c.99,0,1.9.18,2.71.54.81-.36,1.72-.54,2.71-.54h16.27c.99,0,1.9.18,2.71.54.81-.36,1.72-.54,2.71-.54h16.27c.99,0,1.9.18,2.71.54.81-.36,1.72-.54,2.71-.54h3.43l-7.95-7.95c-.9-.9-1.54-2.35-1.72-3.89-1.54-.18-2.98-.81-3.89-1.72l-14.28-14.28Z"/>
    <path class="st0" d="M432.06,258.22c3.8,0,6.33,2.53,6.33,6.33s-2.53,6.33-6.33,6.33h-16.27c-2.71,0-4.7-1.26-5.69-3.34-2.08-.99-3.34-2.98-3.34-5.69v-16.27c0-.99.18-1.9.54-2.71-.36-.81-.54-1.72-.54-2.71v-16.27c0-.99.18-1.9.54-2.71-.36-.81-.54-1.72-.54-2.71v-16.27c0-3.8,2.53-6.33,6.33-6.33s6.33,2.53,6.33,6.33v16.27c0,.99-.18,1.9-.54,2.71.36.81.54,1.72.54,2.71v16.27c0,.99-.18,1.9-.54,2.71.36.81.54,1.72.54,2.71v12.65h12.65Z"/>
    <path class="st0" d="M463.7,227.49v12.65c0,.99-.18,1.9-.54,2.71.36.81.54,1.72.54,2.71v12.65h12.65c3.8,0,6.33,2.53,6.33,6.33s-2.53,6.33-6.33,6.33h-16.27c-2.71,0-4.7-1.26-5.69-3.34-2.08-.99-3.34-2.98-3.34-5.69v-16.27c0-.99.18-1.9.54-2.71-.36-.81-.54-1.72-.54-2.71v-16.27c0-.99.18-1.9.54-2.71-.36-.81-.54-1.72-.54-2.71v-16.27c0-2.71,1.27-4.7,3.34-5.69.99-2.08,2.98-3.34,5.69-3.34h16.27c3.8,0,6.33,2.53,6.33,6.33s-2.53,6.33-6.33,6.33h-12.65v9.04h12.65c3.8,0,6.33,2.53,6.33,6.33s-2.53,6.33-6.33,6.33h-12.65Z"/>
    <g>
      <path class="st0" d="M9.21,340.28l4.73-4.55c2.14-1.94,3.79-3.59,4.95-4.96,1.16-1.37,1.97-2.62,2.44-3.74.46-1.13.7-2.29.7-3.51,0-1.78-.46-3.36-1.38-4.74-.92-1.38-2.21-2.46-3.88-3.23s-3.59-1.15-5.77-1.15-4.08.41-5.74,1.22c-1.66.81-2.95,1.97-3.87,3.47-.92,1.5-1.38,3.25-1.38,5.23h6.11c0-.97.2-1.82.59-2.55.39-.73.95-1.29,1.69-1.68.73-.38,1.58-.58,2.53-.58s1.78.18,2.52.54c.74.36,1.32.87,1.75,1.55.43.68.64,1.46.64,2.34,0,.8-.16,1.55-.48,2.26-.32.71-.79,1.4-1.4,2.1-.61.69-1.47,1.56-2.57,2.62l-11.14,10.24.02,4.64h22.19v-5.28h-13.25v-.22Z"/>
      <path class="st0" d="M46.58,316.26c-1.87-1.25-4.08-1.87-6.65-1.87s-4.78.62-6.65,1.87c-1.87,1.25-3.3,3.06-4.29,5.44-.99,2.38-1.49,5.25-1.49,8.59s.5,6.22,1.49,8.61c.99,2.39,2.42,4.2,4.28,5.44,1.86,1.24,4.08,1.86,6.66,1.86s4.8-.62,6.67-1.86c1.87-1.24,3.29-3.05,4.29-5.43.99-2.38,1.49-5.25,1.49-8.61s-.5-6.2-1.5-8.58c-1-2.39-2.43-4.2-4.3-5.45ZM45.11,336.16c-.47,1.59-1.15,2.78-2.04,3.56-.89.78-1.94,1.18-3.13,1.18s-2.24-.39-3.12-1.18c-.88-.78-1.56-1.97-2.04-3.56-.48-1.59-.72-3.55-.72-5.87s.24-4.26.73-5.85c.49-1.59,1.17-2.78,2.04-3.58.88-.8,1.91-1.2,3.11-1.2s2.24.4,3.12,1.2c.88.8,1.56,1.99,2.03,3.58.47,1.59.7,3.54.7,5.85.01,2.32-.21,4.28-.68,5.87Z"/>
      <path class="st0" d="M66.61,340.28l4.73-4.55c2.14-1.94,3.79-3.59,4.95-4.96,1.16-1.37,1.97-2.62,2.44-3.74.46-1.13.7-2.29.7-3.51,0-1.78-.46-3.36-1.38-4.74-.92-1.38-2.21-2.46-3.88-3.23s-3.59-1.15-5.77-1.15-4.08.41-5.74,1.22c-1.66.81-2.95,1.97-3.87,3.47-.92,1.5-1.38,3.25-1.38,5.23h6.11c0-.97.2-1.82.59-2.55.39-.73.95-1.29,1.69-1.68.73-.38,1.58-.58,2.53-.58s1.78.18,2.52.54c.74.36,1.32.87,1.75,1.55.43.68.64,1.46.64,2.34,0,.8-.16,1.55-.48,2.26-.32.71-.79,1.4-1.4,2.1-.61.69-1.47,1.56-2.57,2.62l-11.14,10.24.02,4.64h22.19v-5.28h-13.25v-.22Z"/>
      <path class="st0" d="M104.28,326.68c-1.48-.86-3.14-1.28-4.98-1.28-1.13,0-2.21.18-3.24.52-1.03.35-1.95.85-2.76,1.5-.81.65-1.45,1.43-1.93,2.34h-.26c.01-2.05.27-3.81.77-5.28.5-1.47,1.22-2.6,2.17-3.39.95-.79,2.11-1.19,3.5-1.19.84,0,1.59.14,2.24.41.66.27,1.2.67,1.64,1.21.43.54.74,1.17.91,1.89h6.35c-.21-1.71-.81-3.25-1.8-4.62-.98-1.37-2.28-2.44-3.88-3.23-1.6-.78-3.42-1.18-5.46-1.18-2.57,0-4.81.66-6.72,1.98-1.92,1.32-3.4,3.23-4.45,5.73-1.05,2.5-1.57,5.47-1.57,8.9s.58,6.52,1.73,8.79c1.16,2.27,2.67,3.9,4.53,4.9,1.87,1,3.95,1.5,6.24,1.52,2.29,0,4.33-.46,6.1-1.38,1.77-.92,3.15-2.2,4.13-3.84.98-1.64,1.46-3.5,1.46-5.58,0-1.92-.42-3.64-1.25-5.16-.83-1.52-1.99-2.7-3.47-3.56ZM102.05,338.38c-.48.85-1.13,1.52-1.97,2.01-.83.49-1.77.74-2.81.74s-1.98-.25-2.81-.76c-.83-.5-1.49-1.18-1.97-2.02-.48-.84-.72-1.75-.74-2.74.03-1.03.29-1.96.77-2.8.49-.84,1.15-1.5,1.99-1.99.84-.49,1.77-.73,2.8-.73s1.97.24,2.8.71c.83.47,1.47,1.13,1.95,1.97.47.84.7,1.78.7,2.82s-.24,1.94-.72,2.79Z"/>
      <rect class="st0" x="157.81" y="310.75" width="5.13" height="38.95"/>
      <path class="st0" d="M144.87,333.36c-1.15-1.69-1.98-3.56-2.49-5.62-.51-2.06-.76-4.24-.76-6.53v-2.09h5.9v-4.36h-17.55v4.36h6.39v2.09c0,2.35-.26,4.6-.79,6.76-.53,2.15-1.38,4.14-2.55,5.95-1.18,1.82-2.68,3.3-4.52,4.44l3.29,4.02c2-1.23,3.63-2.93,4.92-5.12.98-1.67,1.77-3.51,2.36-5.5.56,1.76,1.28,3.39,2.2,4.87,1.27,2.07,2.89,3.68,4.87,4.85l3.18-4c-1.81-1.06-3.29-2.43-4.45-4.12Z"/>
      <polygon class="st0" points="149.87 324.16 144.74 324.16 144.74 328.54 149.87 328.54 149.87 347.93 154.98 347.93 154.98 311.44 149.87 311.44 149.87 324.16"/>
      <path class="st0" d="M187.58,326.56c-1.52-.86-3.21-1.29-5.08-1.29-1.32,0-2.54.24-3.65.73-1.11.49-1.97,1.12-2.57,1.9h-.23l.86-7.8h13.75v-5.28h-19.05l-1.69,17.83h5.84c.47-.88,1.1-1.54,1.9-1.97.8-.43,1.77-.63,2.93-.62,1.08,0,2.05.24,2.9.72.85.48,1.51,1.13,1.99,1.97.48.83.72,1.8.72,2.9s-.23,2-.7,2.83c-.47.83-1.12,1.49-1.96,1.96-.83.47-1.78.7-2.83.7-.88,0-1.7-.17-2.45-.52-.75-.35-1.35-.83-1.82-1.44-.46-.61-.73-1.32-.8-2.12h-6.22c.04,1.74.55,3.31,1.53,4.7.98,1.4,2.32,2.49,4.03,3.27,1.71.78,3.62,1.18,5.73,1.18,2.29,0,4.33-.46,6.09-1.38,1.77-.92,3.15-2.19,4.14-3.83.99-1.63,1.48-3.47,1.46-5.53.01-1.97-.4-3.73-1.25-5.28-.85-1.55-2.03-2.76-3.55-3.62Z"/>
      <path class="st0" d="M211.85,338.4v-3.1c.83-.15,1.61-.38,2.33-.68,1.48-.62,2.64-1.48,3.46-2.58.83-1.1,1.24-2.36,1.24-3.78s-.41-2.71-1.24-3.82c-.83-1.1-1.98-1.96-3.46-2.58-1.48-.61-3.18-.92-5.09-.92s-3.54.31-5.01.92c-1.47.61-2.62,1.47-3.44,2.58-.82,1.1-1.23,2.38-1.23,3.82s.41,2.69,1.23,3.79c.82,1.1,1.97,1.96,3.44,2.58.73.3,1.51.53,2.34.69v3.28c-2.37.06-4.9.1-7.63.12h-2.27l.73,4.47c4.72,0,9.06-.1,13.03-.29,3.97-.19,7.82-.62,11.56-1.27l-.34-4.04c-3.08.4-6.31.66-9.64.82ZM204.58,328.26c0-.67.19-1.24.58-1.72s.92-.84,1.6-1.09c.68-.25,1.46-.37,2.33-.37.91,0,1.72.13,2.42.37.7.25,1.23.61,1.6,1.09.37.48.56,1.05.56,1.72s-.18,1.22-.56,1.7c-.37.48-.9.84-1.6,1.08-.7.24-1.5.36-2.42.36s-1.65-.12-2.33-.37c-.68-.25-1.22-.61-1.6-1.08s-.58-1.03-.58-1.69Z"/>
      <polygon class="st0" points="220.93 315.13 211.89 315.13 211.89 310.94 206.42 310.94 206.42 315.13 197.29 315.13 197.29 319.41 220.93 319.41 220.93 315.13"/>
      <rect class="st0" x="223.63" y="310.75" width="5.41" height="38.95"/>
      <rect class="st0" x="279.8" y="310.75" width="5.13" height="38.95"/>
      <polygon class="st0" points="271.87 324.16 266.74 324.16 266.74 328.54 271.87 328.54 271.87 347.93 276.98 347.93 276.98 311.44 271.87 311.44 271.87 324.16"/>
      <path class="st0" d="M266.87,333.36c-1.15-1.69-1.98-3.56-2.49-5.62-.51-2.06-.76-4.24-.76-6.53v-2.09h5.9v-4.36h-17.55v4.36h6.39v2.09c0,2.35-.26,4.6-.79,6.76-.53,2.15-1.38,4.14-2.55,5.95-1.18,1.82-2.68,3.3-4.52,4.44l3.29,4.02c2-1.23,3.63-2.93,4.92-5.12.98-1.67,1.77-3.51,2.36-5.5.56,1.76,1.29,3.39,2.2,4.87,1.27,2.07,2.89,3.68,4.87,4.85l3.18-4c-1.81-1.06-3.29-2.43-4.45-4.12Z"/>
      <path class="st0" d="M298.76,323.77c-1.95.97-4.28,1.62-7,1.97l2.03,4.26c3.22-.44,6-1.31,8.34-2.6,2.34-1.29,4.13-2.89,5.38-4.8.11-.16.18-.34.28-.5.1.17.18.35.29.51,1.25,1.92,3.06,3.52,5.42,4.8,2.36,1.28,5.16,2.14,8.39,2.59l1.97-4.26c-2.75-.34-5.1-1-7.05-1.97-1.95-.97-3.42-2.11-4.39-3.42-.79-1.05-1.24-2.14-1.39-3.25h11.32v-4.25h-29.1v4.25h11.32c-.15,1.11-.61,2.19-1.4,3.25-.98,1.31-2.45,2.45-4.39,3.42Z"/>
      <polygon class="st0" points="290.04 336.62 304.97 336.62 304.97 349.73 310.37 349.73 310.37 336.62 325.53 336.62 325.53 332.28 290.04 332.28 290.04 336.62"/>
      <path class="st0" d="M344.54,323.37h-8.4v-9.47h-5.45v26.81h19.22v-26.81h-5.37v9.47ZM344.54,336.26h-8.4v-8.66h8.4v8.66Z"/>
      <rect class="st0" x="355.78" y="310.75" width="5.54" height="39.06"/>
      <rect class="st0" x="395.69" y="310.75" width="5.2" height="29.05"/>
      <path class="st0" d="M381.18,331.97c1.37-.83,2.44-1.99,3.22-3.47.43-.83.73-1.72.92-2.67h2.68v12.76h5v-27.19h-5v9.96h-2.62c-.18-1.09-.5-2.1-.98-3.02-.78-1.49-1.85-2.64-3.22-3.46-1.37-.82-2.91-1.23-4.62-1.23s-3.24.41-4.6,1.23c-1.35.82-2.41,1.97-3.18,3.46-.76,1.49-1.14,3.2-1.14,5.12s.38,3.56,1.14,5.05c.76,1.48,1.82,2.64,3.18,3.47,1.35.83,2.89,1.25,4.6,1.25s3.25-.42,4.62-1.25ZM373.02,326.18c-.34-.76-.5-1.67-.5-2.73s.17-1.99.5-2.77c.33-.78.81-1.37,1.43-1.79.62-.41,1.32-.62,2.11-.62s1.53.21,2.14.62c.61.41,1.1,1.01,1.45,1.79.36.78.54,1.7.54,2.77s-.18,1.94-.54,2.71c-.36.77-.84,1.35-1.45,1.75-.61.4-1.33.6-2.14.6s-1.5-.2-2.12-.6c-.61-.4-1.09-.98-1.42-1.74Z"/>
      <polygon class="st0" points="379.96 336.04 374.51 336.04 374.51 344.64 374.51 346.97 374.51 349.04 401.87 349.04 401.87 344.64 379.96 344.64 379.96 336.04"/>
      <path class="st0" d="M428.96,327.34l-.62-4.45c-2.95.54-5.86.94-8.72,1.19-2.15.19-4.28.28-6.41.31v-11.89h-5.47v16.44h3.33c3.02.01,6-.1,8.95-.35s5.93-.67,8.95-1.25Z"/>
      <polygon class="st0" points="437.04 310.75 431.59 310.75 431.59 330.01 437.04 330.01 437.04 322.55 442.3 322.55 442.3 318.06 437.04 318.06 437.04 310.75"/>
      <polygon class="st0" points="416.75 342.33 437.04 342.33 437.04 331.64 411.23 331.64 411.23 335.89 431.52 335.89 431.52 338.22 411.3 338.22 411.3 344.89 411.3 347.01 411.3 349.28 438.17 349.28 438.17 344.89 416.75 344.89 416.75 342.33"/>
      <polygon class="st0" points="465.36 324.07 461.39 324.07 461.39 328.47 465.36 328.47 465.36 347.82 470.47 347.82 470.47 311.5 465.36 311.5 465.36 324.07"/>
      <rect class="st0" x="473.38" y="310.75" width="5.13" height="38.95"/>
      <path class="st0" d="M456.14,335.89c-1.44.09-3.09.14-4.91.17v-6.63h8.51v-14.77h-13.81v4.34h8.57v6.11h-8.53v15.46h2.76c3.05-.02,5.63-.09,7.74-.22,2.11-.13,4.32-.41,6.63-.83l-.47-4.42c-2.25.4-4.42.66-6.49.79Z"/>
    </g>
  </g>
  <g id="Layer_1_copy">
    <path class="st1" d="M27.12,57.12l-7.95,7.95h3.43c.99,0,1.9.18,2.71.54.81-.36,1.72-.54,2.71-.54h16.27c3.8,0,6.33,2.53,6.33,6.33s-2.53,6.33-6.33,6.33h-16.27c-.99,0-1.9-.18-2.71-.54-.81.36-1.72.54-2.71.54H6.33c-3.8,0-6.33-2.53-6.33-6.33,0-.45,0-.9.09-1.36-.09-.45-.09-.9-.09-1.36,0-1.81.72-3.71,1.81-4.79l16.09-16c.9-.9,2.35-1.54,3.89-1.72.18-1.54.81-3.07,1.72-3.98l14.28-14.19-14.28-14.28c-1.08-1.08-1.81-2.98-1.81-4.7,0-3.8,2.53-6.33,6.33-6.33,1.81,0,3.71.72,4.79,1.81l16,16c1.08,1.08,1.81,2.98,1.81,4.79,0,.99-.18,1.9-.54,2.71.36.81.54,1.72.54,2.71,0,1.72-.72,3.61-1.81,4.7l-16,16.09c-.9.9-2.44,1.54-3.98,1.72-.18,1.54-.81,2.98-1.72,3.89Z"/>
    <path class="st1" d="M119.31,30.73v16.27c0,2.44-.99,4.25-2.71,5.33v.09c0,1.72-.72,3.62-1.81,4.7l-16,16.09c-1.08,1.08-2.98,1.81-4.79,1.81-.99,0-1.9-.18-2.71-.54-.81.36-1.72.54-2.71.54-1.72,0-3.62-.72-4.7-1.81l-16.09-16.09c-1.09-1.08-1.81-2.98-1.81-4.7v-.09c-1.72-1.08-2.71-2.89-2.71-5.33v-16.27c0-2.44.99-4.25,2.71-5.33v-.09c0-1.81.72-3.71,1.81-4.79l16.09-16c1.09-1.08,2.98-1.81,4.7-1.81.99,0,1.9.18,2.71.54.81-.36,1.72-.54,2.71-.54,1.81,0,3.71.72,4.79,1.81l16,16c1.08,1.08,1.81,2.98,1.81,4.79v.09c1.72,1.08,2.71,2.89,2.71,5.33ZM91.29,62.09l14.28-14.19c.27-.27.63-.54,1.08-.81v-16.45c-.45-.27-.81-.54-1.08-.81l-14.28-14.28-14.19,14.28c-.36.36-.72.63-1.18.9v16.27c.45.27.81.54,1.18.9l14.19,14.19Z"/>
    <path class="st1" d="M151.4,57.12l-7.95,7.95h3.43c.99,0,1.9.18,2.71.54.81-.36,1.72-.54,2.71-.54h16.27c3.8,0,6.33,2.53,6.33,6.33s-2.53,6.33-6.33,6.33h-16.27c-.99,0-1.9-.18-2.71-.54-.81.36-1.72.54-2.71.54h-16.27c-3.8,0-6.33-2.53-6.33-6.33,0-.45,0-.9.09-1.36-.09-.45-.09-.9-.09-1.36,0-1.81.72-3.71,1.81-4.79l16.09-16c.9-.9,2.35-1.54,3.89-1.72.18-1.54.81-3.07,1.72-3.98l14.28-14.19-14.28-14.28c-1.08-1.08-1.81-2.98-1.81-4.7,0-3.8,2.53-6.33,6.33-6.33,1.81,0,3.71.72,4.79,1.81l16,16c1.08,1.08,1.81,2.98,1.81,4.79,0,.99-.18,1.9-.54,2.71.36.81.54,1.72.54,2.71,0,1.72-.72,3.61-1.81,4.7l-16,16.09c-.9.9-2.44,1.54-3.98,1.72-.18,1.54-.81,2.98-1.72,3.89Z"/>
    <path class="st1" d="M217.39,42.21c1.08,1.09,1.81,2.98,1.81,4.79,0,.99-.18,1.9-.54,2.71.36.81.54,1.72.54,2.71,0,1.72-.72,3.62-1.81,4.7l-16,16.09c-1.09,1.08-2.98,1.81-4.79,1.81-.45,0-.9,0-1.36-.09-.45.09-.9.09-1.36.09-3.8,0-6.33-2.53-6.33-6.33v-16.27c0-.99.18-1.9.54-2.71-.36-.81-.54-1.72-.54-2.71v-16.27c0-2.44.99-4.25,2.71-5.33v-.09c0-1.81.72-3.71,1.81-4.79l16.09-16c1.09-1.08,2.98-1.81,4.7-1.81,3.8,0,6.33,2.53,6.33,6.33,0,1.72-.72,3.62-1.81,4.7l-14.19,14.28,14.19,14.19ZM200.21,55.86l6.15-6.15-6.15-6.15v3.44c0,.99-.18,1.9-.54,2.71.36.81.54,1.72.54,2.71v3.44Z"/>
    <path class="st1" d="M298.74,43.38c3.8,0,6.33,2.53,6.33,6.33,0,.45,0,.9-.09,1.35.09.45.09.9.09,1.36,0,1.72-.72,3.62-1.81,4.7l-16,16.09c-1.09,1.08-2.98,1.81-4.79,1.81-3.8,0-6.33-2.53-6.33-6.33,0-1.81.72-3.71,1.81-4.79l7.86-7.86h-3.34c-2.71,0-4.7-1.27-5.69-3.34-2.08-.99-3.34-2.98-3.34-5.69v-16.27c0-.99.18-1.9.54-2.71-.36-.81-.54-1.72-.54-2.71V9.04c0-2.71,1.27-4.7,3.34-5.69.99-2.08,2.98-3.34,5.69-3.34h16.27c3.8,0,6.33,2.53,6.33,6.33s-2.53,6.33-6.33,6.33h-12.65v12.65c0,.99-.18,1.9-.54,2.71.36.81.54,1.72.54,2.71v12.65h12.65Z"/>
    <path class="st1" d="M362.01,0c3.8,0,6.33,2.53,6.33,6.33s-2.53,6.33-6.33,6.33h-12.65v12.65c0,.99-.18,1.9-.54,2.71.36.81.54,1.72.54,2.71v16.27c0,.99-.18,1.9-.54,2.71.36.81.54,1.72.54,2.71v16.27c0,3.8-2.53,6.33-6.33,6.33s-6.33-2.53-6.33-6.33v-16.27c0-.99.18-1.9.54-2.71-.36-.81-.54-1.72-.54-2.71v-16.27c0-.99.18-1.9.54-2.71-.36-.81-.54-1.72-.54-2.71v-12.65h-12.65c-3.8,0-6.33-2.53-6.33-6.33s2.53-6.33,6.33-6.33h16.27c.99,0,1.9.18,2.71.54.81-.36,1.72-.54,2.71-.54h16.27Z"/>
    <path class="st1" d="M415.34,25.31c0,.99-.18,1.9-.54,2.71.36.81.54,1.72.54,2.71v16.27c0,.99-.18,1.9-.54,2.71.36.81.54,1.72.54,2.71v16.27c0,3.8-2.53,6.33-6.33,6.33s-6.33-2.53-6.33-6.33v-16.27c0-.99.18-1.9.54-2.71-.36-.81-.54-1.72-.54-2.71v-12.65h-9.04v12.65c0,.99-.18,1.9-.54,2.71.36.81.54,1.72.54,2.71v16.27c0,3.8-2.53,6.33-6.33,6.33s-6.33-2.53-6.33-6.33v-16.27c0-.99.18-1.9.54-2.71-.36-.81-.54-1.72-.54-2.71v-16.27c0-.99.18-1.9.54-2.71-.36-.81-.54-1.72-.54-2.71V9.04c0-3.8,2.53-6.33,6.33-6.33s6.33,2.53,6.33,6.33v12.65h9.04v-12.65c0-3.8,2.53-6.33,6.33-6.33s6.33,2.53,6.33,6.33v16.27Z"/>
    <path class="st1" d="M31.63,121.88c0,.99-.18,1.9-.54,2.71.36.81.54,1.72.54,2.71v16.27c0,.99-.18,1.9-.54,2.71.36.81.54,1.72.54,2.71v16.27c0,3.8-2.53,6.33-6.33,6.33-.45,0-.9,0-1.36-.09-.45.09-.9.09-1.36.09-1.72,0-3.61-.72-4.7-1.81L1.81,153.7c-1.09-1.08-1.81-2.98-1.81-4.7,0-3.8,2.53-6.33,6.33-6.33,1.81,0,3.71.72,4.79,1.81l7.86,7.86v-3.34c0-.99.18-1.9.54-2.71-.36-.81-.54-1.72-.54-2.71v-16.27c0-.99.18-1.9.54-2.71-.36-.81-.54-1.72-.54-2.71v-16.27c0-3.8,2.53-6.33,6.33-6.33s6.33,2.53,6.33,6.33v16.27Z"/>
    <path class="st1" d="M56.94,130.92v12.65c0,.99-.18,1.9-.54,2.71.36.81.54,1.72.54,2.71v12.65h12.65c3.8,0,6.33,2.53,6.33,6.33s-2.53,6.33-6.33,6.33h-16.27c-2.71,0-4.7-1.26-5.69-3.34-2.08-.99-3.34-2.98-3.34-5.69v-16.27c0-.99.18-1.9.54-2.71-.36-.81-.54-1.72-.54-2.71v-16.27c0-.99.18-1.9.54-2.71-.36-.81-.54-1.72-.54-2.71v-16.27c0-2.71,1.27-4.7,3.34-5.69.99-2.08,2.98-3.34,5.69-3.34h16.27c3.8,0,6.33,2.53,6.33,6.33s-2.53,6.33-6.33,6.33h-12.65v9.04h12.65c3.8,0,6.33,2.53,6.33,6.33s-2.53,6.33-6.33,6.33h-12.65Z"/>
    <path class="st1" d="M120.22,121.88c0,.99-.18,1.9-.54,2.71.36.81.54,1.72.54,2.71v16.27c0,.99-.18,1.9-.54,2.71.36.81.54,1.72.54,2.71v16.27c0,3.8-2.53,6.33-6.33,6.33-.45,0-.9,0-1.36-.09-.45.09-.9.09-1.36.09-1.72,0-3.62-.72-4.7-1.81l-16.09-16.09c-1.09-1.08-1.81-2.98-1.81-4.7,0-3.8,2.53-6.33,6.33-6.33,1.81,0,3.71.72,4.79,1.81l7.86,7.86v-3.34c0-.99.18-1.9.54-2.71-.36-.81-.54-1.72-.54-2.71v-16.27c0-.99.18-1.9.54-2.71-.36-.81-.54-1.72-.54-2.71v-16.27c0-3.8,2.53-6.33,6.33-6.33s6.33,2.53,6.33,6.33v16.27Z"/>
    <path class="st1" d="M188.91,121.88c0,.99-.18,1.9-.54,2.71.36.81.54,1.72.54,2.71v16.27c0,2.44-.99,4.25-2.71,5.33v.09c0,1.72-.72,3.62-1.81,4.7l-16,16.09c-1.08,1.08-2.98,1.81-4.79,1.81-.99,0-1.9-.18-2.71-.54-.81.36-1.72.54-2.71.54-1.72,0-3.61-.72-4.7-1.81l-16.09-16.09c-1.09-1.08-1.81-2.98-1.81-4.7v-.09c-1.72-1.08-2.71-2.89-2.71-5.33v-16.27c0-.99.18-1.9.54-2.71-.36-.81-.54-1.72-.54-2.71v-16.27c0-3.8,2.53-6.33,6.33-6.33s6.33,2.53,6.33,6.33v16.27c0,.99-.18,1.9-.54,2.71.36.81.54,1.72.54,2.71v16.27c.45.27.81.54,1.17.9l14.19,14.19,14.28-14.19c.27-.27.63-.54,1.08-.81v-16.36c0-.99.18-1.9.54-2.71-.36-.81-.54-1.72-.54-2.71v-16.27c0-3.8,2.53-6.33,6.33-6.33s6.33,2.53,6.33,6.33v16.27Z"/>
    <path class="st1" d="M29.83,206.89l-14.19,14.28,14.19,14.19c1.08,1.09,1.81,2.98,1.81,4.79,0,.99-.18,1.9-.54,2.71.36.81.54,1.72.54,2.71,0,1.72-.72,3.62-1.81,4.7l-16,16.09c-1.08,1.08-2.98,1.81-4.79,1.81-.45,0-.9,0-1.36-.09-.45.09-.9.09-1.36.09-3.8,0-6.33-2.53-6.33-6.33v-16.27c0-.99.18-1.9.54-2.71-.36-.81-.54-1.72-.54-2.71v-16.27c0-.99.18-1.9.54-2.71-.36-.81-.54-1.72-.54-2.71v-16.27c0-2.71,1.27-4.7,3.34-5.69.99-2.08,2.98-3.34,5.69-3.34h16.27c3.8,0,6.33,2.53,6.33,6.33,0,.45,0,.9-.09,1.36.09.45.09.9.09,1.36,0,1.72-.72,3.62-1.81,4.7ZM12.65,249.01l6.15-6.15-6.15-6.15v3.44c0,.99-.18,1.9-.54,2.71.36.81.54,1.72.54,2.71v3.44Z"/>
    <path class="st1" d="M56.94,218.45c0,.99-.18,1.9-.54,2.71.36.81.54,1.72.54,2.71v16.27c0,.99-.18,1.9-.54,2.71.36.81.54,1.72.54,2.71v16.27c0,3.8-2.53,6.33-6.33,6.33s-6.33-2.53-6.33-6.33v-16.27c0-.99.18-1.9.54-2.71-.36-.81-.54-1.72-.54-2.71v-16.27c0-.99.18-1.9.54-2.71-.36-.81-.54-1.72-.54-2.71v-16.27c0-3.8,2.53-6.33,6.33-6.33s6.33,2.53,6.33,6.33v16.27Z"/>
    <path class="st1" d="M82.25,227.49v12.65c0,.99-.18,1.9-.54,2.71.36.81.54,1.72.54,2.71v12.65h12.65c3.8,0,6.33,2.53,6.33,6.33s-2.53,6.33-6.33,6.33h-16.27c-2.71,0-4.7-1.26-5.69-3.34-2.08-.99-3.34-2.98-3.34-5.69v-16.27c0-.99.18-1.9.54-2.71-.36-.81-.54-1.72-.54-2.71v-16.27c0-.99.18-1.9.54-2.71-.36-.81-.54-1.72-.54-2.71v-16.27c0-2.71,1.27-4.7,3.34-5.69.99-2.08,2.98-3.34,5.69-3.34h16.27c3.8,0,6.33,2.53,6.33,6.33s-2.53,6.33-6.33,6.33h-12.65v9.04h12.65c3.8,0,6.33,2.53,6.33,6.33s-2.53,6.33-6.33,6.33h-12.65Z"/>
    <path class="st1" d="M191.62,218.45c0,.99-.18,1.9-.54,2.71.36.81.54,1.72.54,2.71v16.27c0,.99-.18,1.9-.54,2.71.36.81.54,1.72.54,2.71v16.27c0,3.8-2.53,6.33-6.33,6.33-.45,0-.9,0-1.36-.09-.45.09-.9.09-1.36.09-1.72,0-3.61-.72-4.7-1.81l-16.09-16.09c-.9-.9-1.54-2.35-1.72-3.89-1.54-.18-2.98-.81-3.89-1.72l-16.09-16.09c-.9-.9-1.54-2.35-1.72-3.89-1.54-.18-2.98-.81-3.89-1.72l-7.95-7.95v3.43c0,.99-.18,1.9-.54,2.71.36.81.54,1.72.54,2.71v16.27c0,.99-.18,1.9-.54,2.71.36.81.54,1.72.54,2.71v16.27c0,3.8-2.53,6.33-6.33,6.33s-6.33-2.53-6.33-6.33v-16.27c0-.99.18-1.9.54-2.71-.36-.81-.54-1.72-.54-2.71v-16.27c0-.99.18-1.9.54-2.71-.36-.81-.54-1.72-.54-2.71v-16.27c0-3.8,2.53-6.33,6.33-6.33.45,0,.9,0,1.36.09.45-.09.9-.09,1.36-.09,1.81,0,3.71.72,4.79,1.81l16,16c.9.9,1.54,2.44,1.72,3.98,1.54.18,3.07.81,3.98,1.72l16,16c.9.9,1.54,2.44,1.72,3.98,1.54.18,3.07.81,3.98,1.72l7.86,7.86v-3.34c0-.99.18-1.9.54-2.71-.36-.81-.54-1.72-.54-2.71v-16.27c0-.99.18-1.9.54-2.71-.36-.81-.54-1.72-.54-2.71v-16.27c0-3.8,2.53-6.33,6.33-6.33s6.33,2.53,6.33,6.33v16.27Z"/>
    <path class="st1" d="M282.01,218.45c0,.99-.18,1.9-.54,2.71.36.81.54,1.72.54,2.71v16.27c0,.99-.18,1.9-.54,2.71.36.81.54,1.72.54,2.71v16.27c0,3.8-2.53,6.33-6.33,6.33-.45,0-.9,0-1.36-.09-.45.09-.9.09-1.36.09-1.72,0-3.62-.72-4.7-1.81l-16.09-16.09c-.9-.9-1.54-2.35-1.72-3.89-1.54-.18-2.98-.81-3.89-1.72l-16.09-16.09c-.9-.9-1.54-2.35-1.72-3.89-1.54-.18-2.98-.81-3.89-1.72l-7.95-7.95v3.43c0,.99-.18,1.9-.54,2.71.36.81.54,1.72.54,2.71v16.27c0,.99-.18,1.9-.54,2.71.36.81.54,1.72.54,2.71v16.27c0,3.8-2.53,6.33-6.33,6.33s-6.33-2.53-6.33-6.33v-16.27c0-.99.18-1.9.54-2.71-.36-.81-.54-1.72-.54-2.71v-16.27c0-.99.18-1.9.54-2.71-.36-.81-.54-1.72-.54-2.71v-16.27c0-3.8,2.53-6.33,6.33-6.33.45,0,.9,0,1.36.09.45-.09.9-.09,1.36-.09,1.81,0,3.71.72,4.79,1.81l16,16c.9.9,1.54,2.44,1.72,3.98,1.54.18,3.07.81,3.98,1.72l16,16c.9.9,1.54,2.44,1.72,3.98,1.54.18,3.07.81,3.98,1.72l7.86,7.86v-3.34c0-.99.18-1.9.54-2.71-.36-.81-.54-1.72-.54-2.71v-16.27c0-.99.18-1.9.54-2.71-.36-.81-.54-1.72-.54-2.71v-16.27c0-3.8,2.53-6.33,6.33-6.33s6.33,2.53,6.33,6.33v16.27Z"/>
    <path class="st1" d="M394.09,245.57v16.27c0,3.8-2.53,6.33-6.33,6.33s-6.33-2.53-6.33-6.33v-12.65h-12.65c-.99,0-1.9-.18-2.71-.54-.81.36-1.72.54-2.71.54h-16.27c-.99,0-1.9-.18-2.71-.54-.81.36-1.72.54-2.71.54h-16.27c-.99,0-1.9-.18-2.71-.54-.81.36-1.72.54-2.71.54h-12.65v12.65c0,3.8-2.53,6.33-6.33,6.33s-6.33-2.53-6.33-6.33v-16.27c0-2.44.99-4.25,2.71-5.33v-.09c0-1.81.72-3.71,1.81-4.79l16.09-16c.9-.9,2.35-1.54,3.89-1.72.18-1.54.81-3.07,1.72-3.98l16.09-16c1.08-1.08,2.98-1.81,4.7-1.81.99,0,1.9.18,2.71.54.81-.36,1.72-.54,2.71-.54,1.81,0,3.71.72,4.79,1.81l16,16c.9.9,1.54,2.44,1.72,3.98,1.54.18,3.07.81,3.98,1.72l16,16c1.08,1.09,1.81,2.98,1.81,4.79v.09c1.72,1.08,2.71,2.89,2.71,5.33ZM344.38,208.69l-14.19,14.28c-.9.9-2.44,1.54-3.98,1.72-.18,1.54-.81,2.98-1.72,3.89l-7.95,7.95h3.43c.99,0,1.9.18,2.71.54.81-.36,1.72-.54,2.71-.54h16.27c.99,0,1.9.18,2.71.54.81-.36,1.72-.54,2.71-.54h16.27c.99,0,1.9.18,2.71.54.81-.36,1.72-.54,2.71-.54h3.43l-7.95-7.95c-.9-.9-1.54-2.35-1.72-3.89-1.54-.18-2.98-.81-3.89-1.72l-14.28-14.28Z"/>
    <path class="st1" d="M432.06,258.22c3.8,0,6.33,2.53,6.33,6.33s-2.53,6.33-6.33,6.33h-16.27c-2.71,0-4.7-1.26-5.69-3.34-2.08-.99-3.34-2.98-3.34-5.69v-16.27c0-.99.18-1.9.54-2.71-.36-.81-.54-1.72-.54-2.71v-16.27c0-.99.18-1.9.54-2.71-.36-.81-.54-1.72-.54-2.71v-16.27c0-3.8,2.53-6.33,6.33-6.33s6.33,2.53,6.33,6.33v16.27c0,.99-.18,1.9-.54,2.71.36.81.54,1.72.54,2.71v16.27c0,.99-.18,1.9-.54,2.71.36.81.54,1.72.54,2.71v12.65h12.65Z"/>
    <path class="st1" d="M463.7,227.49v12.65c0,.99-.18,1.9-.54,2.71.36.81.54,1.72.54,2.71v12.65h12.65c3.8,0,6.33,2.53,6.33,6.33s-2.53,6.33-6.33,6.33h-16.27c-2.71,0-4.7-1.26-5.69-3.34-2.08-.99-3.34-2.98-3.34-5.69v-16.27c0-.99.18-1.9.54-2.71-.36-.81-.54-1.72-.54-2.71v-16.27c0-.99.18-1.9.54-2.71-.36-.81-.54-1.72-.54-2.71v-16.27c0-2.71,1.27-4.7,3.34-5.69.99-2.08,2.98-3.34,5.69-3.34h16.27c3.8,0,6.33,2.53,6.33,6.33s-2.53,6.33-6.33,6.33h-12.65v9.04h12.65c3.8,0,6.33,2.53,6.33,6.33s-2.53,6.33-6.33,6.33h-12.65Z"/>
    <g>
      <path class="st1" d="M9.21,340.28l4.73-4.55c2.14-1.94,3.79-3.59,4.95-4.96,1.16-1.37,1.97-2.62,2.44-3.74.46-1.13.7-2.29.7-3.51,0-1.78-.46-3.36-1.38-4.74-.92-1.38-2.21-2.46-3.88-3.23s-3.59-1.15-5.77-1.15-4.08.41-5.74,1.22c-1.66.81-2.95,1.97-3.87,3.47-.92,1.5-1.38,3.25-1.38,5.23h6.11c0-.97.2-1.82.59-2.55.39-.73.95-1.29,1.69-1.68.73-.38,1.58-.58,2.53-.58s1.78.18,2.52.54c.74.36,1.32.87,1.75,1.55.43.68.64,1.46.64,2.34,0,.8-.16,1.55-.48,2.26-.32.71-.79,1.4-1.4,2.1-.61.69-1.47,1.56-2.57,2.62l-11.14,10.24.02,4.64h22.19v-5.28h-13.25v-.22Z"/>
      <path class="st1" d="M46.58,316.26c-1.87-1.25-4.08-1.87-6.65-1.87s-4.78.62-6.65,1.87c-1.87,1.25-3.3,3.06-4.29,5.44-.99,2.38-1.49,5.25-1.49,8.59s.5,6.22,1.49,8.61c.99,2.39,2.42,4.2,4.28,5.44,1.86,1.24,4.08,1.86,6.66,1.86s4.8-.62,6.67-1.86c1.87-1.24,3.29-3.05,4.29-5.43.99-2.38,1.49-5.25,1.49-8.61s-.5-6.2-1.5-8.58c-1-2.39-2.43-4.2-4.3-5.45ZM45.11,336.16c-.47,1.59-1.15,2.78-2.04,3.56-.89.78-1.94,1.18-3.13,1.18s-2.24-.39-3.12-1.18c-.88-.78-1.56-1.97-2.04-3.56-.48-1.59-.72-3.55-.72-5.87s.24-4.26.73-5.85c.49-1.59,1.17-2.78,2.04-3.58.88-.8,1.91-1.2,3.11-1.2s2.24.4,3.12,1.2c.88.8,1.56,1.99,2.03,3.58.47,1.59.7,3.54.7,5.85.01,2.32-.21,4.28-.68,5.87Z"/>
      <path class="st1" d="M66.61,340.28l4.73-4.55c2.14-1.94,3.79-3.59,4.95-4.96,1.16-1.37,1.97-2.62,2.44-3.74.46-1.13.7-2.29.7-3.51,0-1.78-.46-3.36-1.38-4.74-.92-1.38-2.21-2.46-3.88-3.23s-3.59-1.15-5.77-1.15-4.08.41-5.74,1.22c-1.66.81-2.95,1.97-3.87,3.47-.92,1.5-1.38,3.25-1.38,5.23h6.11c0-.97.2-1.82.59-2.55.39-.73.95-1.29,1.69-1.68.73-.38,1.58-.58,2.53-.58s1.78.18,2.52.54c.74.36,1.32.87,1.75,1.55.43.68.64,1.46.64,2.34,0,.8-.16,1.55-.48,2.26-.32.71-.79,1.4-1.4,2.1-.61.69-1.47,1.56-2.57,2.62l-11.14,10.24.02,4.64h22.19v-5.28h-13.25v-.22Z"/>
      <path class="st1" d="M104.28,326.68c-1.48-.86-3.14-1.28-4.98-1.28-1.13,0-2.21.18-3.24.52-1.03.35-1.95.85-2.76,1.5-.81.65-1.45,1.43-1.93,2.34h-.26c.01-2.05.27-3.81.77-5.28.5-1.47,1.22-2.6,2.17-3.39.95-.79,2.11-1.19,3.5-1.19.84,0,1.59.14,2.24.41.66.27,1.2.67,1.64,1.21.43.54.74,1.17.91,1.89h6.35c-.21-1.71-.81-3.25-1.8-4.62-.98-1.37-2.28-2.44-3.88-3.23-1.6-.78-3.42-1.18-5.46-1.18-2.57,0-4.81.66-6.72,1.98-1.92,1.32-3.4,3.23-4.45,5.73-1.05,2.5-1.57,5.47-1.57,8.9s.58,6.52,1.73,8.79c1.16,2.27,2.67,3.9,4.53,4.9,1.87,1,3.95,1.5,6.24,1.52,2.29,0,4.33-.46,6.1-1.38,1.77-.92,3.15-2.2,4.13-3.84.98-1.64,1.46-3.5,1.46-5.58,0-1.92-.42-3.64-1.25-5.16-.83-1.52-1.99-2.7-3.47-3.56ZM102.05,338.38c-.48.85-1.13,1.52-1.97,2.01-.83.49-1.77.74-2.81.74s-1.98-.25-2.81-.76c-.83-.5-1.49-1.18-1.97-2.02-.48-.84-.72-1.75-.74-2.74.03-1.03.29-1.96.77-2.8.49-.84,1.15-1.5,1.99-1.99.84-.49,1.77-.73,2.8-.73s1.97.24,2.8.71c.83.47,1.47,1.13,1.95,1.97.47.84.7,1.78.7,2.82s-.24,1.94-.72,2.79Z"/>
      <rect class="st1" x="157.81" y="310.75" width="5.13" height="38.95"/>
      <path class="st1" d="M144.87,333.36c-1.15-1.69-1.98-3.56-2.49-5.62-.51-2.06-.76-4.24-.76-6.53v-2.09h5.9v-4.36h-17.55v4.36h6.39v2.09c0,2.35-.26,4.6-.79,6.76-.53,2.15-1.38,4.14-2.55,5.95-1.18,1.82-2.68,3.3-4.52,4.44l3.29,4.02c2-1.23,3.63-2.93,4.92-5.12.98-1.67,1.77-3.51,2.36-5.5.56,1.76,1.28,3.39,2.2,4.87,1.27,2.07,2.89,3.68,4.87,4.85l3.18-4c-1.81-1.06-3.29-2.43-4.45-4.12Z"/>
      <polygon class="st1" points="149.87 324.16 144.74 324.16 144.74 328.54 149.87 328.54 149.87 347.93 154.98 347.93 154.98 311.44 149.87 311.44 149.87 324.16"/>
      <path class="st1" d="M187.58,326.56c-1.52-.86-3.21-1.29-5.08-1.29-1.32,0-2.54.24-3.65.73-1.11.49-1.97,1.12-2.57,1.9h-.23l.86-7.8h13.75v-5.28h-19.05l-1.69,17.83h5.84c.47-.88,1.1-1.54,1.9-1.97.8-.43,1.77-.63,2.93-.62,1.08,0,2.05.24,2.9.72.85.48,1.51,1.13,1.99,1.97.48.83.72,1.8.72,2.9s-.23,2-.7,2.83c-.47.83-1.12,1.49-1.96,1.96-.83.47-1.78.7-2.83.7-.88,0-1.7-.17-2.45-.52-.75-.35-1.35-.83-1.82-1.44-.46-.61-.73-1.32-.8-2.12h-6.22c.04,1.74.55,3.31,1.53,4.7.98,1.4,2.32,2.49,4.03,3.27,1.71.78,3.62,1.18,5.73,1.18,2.29,0,4.33-.46,6.09-1.38,1.77-.92,3.15-2.19,4.14-3.83.99-1.63,1.48-3.47,1.46-5.53.01-1.97-.4-3.73-1.25-5.28-.85-1.55-2.03-2.76-3.55-3.62Z"/>
      <path class="st1" d="M211.85,338.4v-3.1c.83-.15,1.61-.38,2.33-.68,1.48-.62,2.64-1.48,3.46-2.58.83-1.1,1.24-2.36,1.24-3.78s-.41-2.71-1.24-3.82c-.83-1.1-1.98-1.96-3.46-2.58-1.48-.61-3.18-.92-5.09-.92s-3.54.31-5.01.92c-1.47.61-2.62,1.47-3.44,2.58-.82,1.1-1.23,2.38-1.23,3.82s.41,2.69,1.23,3.79c.82,1.1,1.97,1.96,3.44,2.58.73.3,1.51.53,2.34.69v3.28c-2.37.06-4.9.1-7.63.12h-2.27l.73,4.47c4.72,0,9.06-.1,13.03-.29,3.97-.19,7.82-.62,11.56-1.27l-.34-4.04c-3.08.4-6.31.66-9.64.82ZM204.58,328.26c0-.67.19-1.24.58-1.72s.92-.84,1.6-1.09c.68-.25,1.46-.37,2.33-.37.91,0,1.72.13,2.42.37.7.25,1.23.61,1.6,1.09.37.48.56,1.05.56,1.72s-.18,1.22-.56,1.7c-.37.48-.9.84-1.6,1.08-.7.24-1.5.36-2.42.36s-1.65-.12-2.33-.37c-.68-.25-1.22-.61-1.6-1.08s-.58-1.03-.58-1.69Z"/>
      <polygon class="st1" points="220.93 315.13 211.89 315.13 211.89 310.94 206.42 310.94 206.42 315.13 197.29 315.13 197.29 319.41 220.93 319.41 220.93 315.13"/>
      <rect class="st1" x="223.63" y="310.75" width="5.41" height="38.95"/>
      <rect class="st1" x="279.8" y="310.75" width="5.13" height="38.95"/>
      <polygon class="st1" points="271.87 324.16 266.74 324.16 266.74 328.54 271.87 328.54 271.87 347.93 276.98 347.93 276.98 311.44 271.87 311.44 271.87 324.16"/>
      <path class="st1" d="M266.87,333.36c-1.15-1.69-1.98-3.56-2.49-5.62-.51-2.06-.76-4.24-.76-6.53v-2.09h5.9v-4.36h-17.55v4.36h6.39v2.09c0,2.35-.26,4.6-.79,6.76-.53,2.15-1.38,4.14-2.55,5.95-1.18,1.82-2.68,3.3-4.52,4.44l3.29,4.02c2-1.23,3.63-2.93,4.92-5.12.98-1.67,1.77-3.51,2.36-5.5.56,1.76,1.29,3.39,2.2,4.87,1.27,2.07,2.89,3.68,4.87,4.85l3.18-4c-1.81-1.06-3.29-2.43-4.45-4.12Z"/>
      <path class="st1" d="M298.76,323.77c-1.95.97-4.28,1.62-7,1.97l2.03,4.26c3.22-.44,6-1.31,8.34-2.6,2.34-1.29,4.13-2.89,5.38-4.8.11-.16.18-.34.28-.5.1.17.18.35.29.51,1.25,1.92,3.06,3.52,5.42,4.8,2.36,1.28,5.16,2.14,8.39,2.59l1.97-4.26c-2.75-.34-5.1-1-7.05-1.97-1.95-.97-3.42-2.11-4.39-3.42-.79-1.05-1.24-2.14-1.39-3.25h11.32v-4.25h-29.1v4.25h11.32c-.15,1.11-.61,2.19-1.4,3.25-.98,1.31-2.45,2.45-4.39,3.42Z"/>
      <polygon class="st1" points="290.04 336.62 304.97 336.62 304.97 349.73 310.37 349.73 310.37 336.62 325.53 336.62 325.53 332.28 290.04 332.28 290.04 336.62"/>
      <path class="st1" d="M344.54,323.37h-8.4v-9.47h-5.45v26.81h19.22v-26.81h-5.37v9.47ZM344.54,336.26h-8.4v-8.66h8.4v8.66Z"/>
      <rect class="st1" x="355.78" y="310.75" width="5.54" height="39.06"/>
      <rect class="st1" x="395.69" y="310.75" width="5.2" height="29.05"/>
      <path class="st1" d="M381.18,331.97c1.37-.83,2.44-1.99,3.22-3.47.43-.83.73-1.72.92-2.67h2.68v12.76h5v-27.19h-5v9.96h-2.62c-.18-1.09-.5-2.1-.98-3.02-.78-1.49-1.85-2.64-3.22-3.46-1.37-.82-2.91-1.23-4.62-1.23s-3.24.41-4.6,1.23c-1.35.82-2.41,1.97-3.18,3.46-.76,1.49-1.14,3.2-1.14,5.12s.38,3.56,1.14,5.05c.76,1.48,1.82,2.64,3.18,3.47,1.35.83,2.89,1.25,4.6,1.25s3.25-.42,4.62-1.25ZM373.02,326.18c-.34-.76-.5-1.67-.5-2.73s.17-1.99.5-2.77c.33-.78.81-1.37,1.43-1.79.62-.41,1.32-.62,2.11-.62s1.53.21,2.14.62c.61.41,1.1,1.01,1.45,1.79.36.78.54,1.7.54,2.77s-.18,1.94-.54,2.71c-.36.77-.84,1.35-1.45,1.75-.61.4-1.33.6-2.14.6s-1.5-.2-2.12-.6c-.61-.4-1.09-.98-1.42-1.74Z"/>
      <polygon class="st1" points="379.96 336.04 374.51 336.04 374.51 344.64 374.51 346.97 374.51 349.04 401.87 349.04 401.87 344.64 379.96 344.64 379.96 336.04"/>
      <path class="st1" d="M428.96,327.34l-.62-4.45c-2.95.54-5.86.94-8.72,1.19-2.15.19-4.28.28-6.41.31v-11.89h-5.47v16.44h3.33c3.02.01,6-.1,8.95-.35s5.93-.67,8.95-1.25Z"/>
      <polygon class="st1" points="437.04 310.75 431.59 310.75 431.59 330.01 437.04 330.01 437.04 322.55 442.3 322.55 442.3 318.06 437.04 318.06 437.04 310.75"/>
      <polygon class="st1" points="416.75 342.33 437.04 342.33 437.04 331.64 411.23 331.64 411.23 335.89 431.52 335.89 431.52 338.22 411.3 338.22 411.3 344.89 411.3 347.01 411.3 349.28 438.17 349.28 438.17 344.89 416.75 344.89 416.75 342.33"/>
      <polygon class="st1" points="465.36 324.07 461.39 324.07 461.39 328.47 465.36 328.47 465.36 347.82 470.47 347.82 470.47 311.5 465.36 311.5 465.36 324.07"/>
      <rect class="st1" x="473.38" y="310.75" width="5.13" height="38.95"/>
      <path class="st1" d="M456.14,335.89c-1.44.09-3.09.14-4.91.17v-6.63h8.51v-14.77h-13.81v4.34h8.57v6.11h-8.53v15.46h2.76c3.05-.02,5.63-.09,7.74-.22,2.11-.13,4.32-.41,6.63-.83l-.47-4.42c-2.25.4-4.42.66-6.49.79Z"/>
    </g>
  </g>
</svg>